<mxfile host="app.diagrams.net" modified="2020-12-14T11:22:55.661Z" agent="5.0 (Windows)" etag="Dua0OAWgaGDbIG3MaLfT" version="14.0.1" type="github">
  <diagram name="Page-1" id="13e1069c-82ec-6db2-03f1-153e76fe0fe0">
    <mxGraphModel dx="521" dy="635" grid="1" gridSize="10" guides="1" tooltips="1" connect="1" arrows="1" fold="1" page="1" pageScale="1" pageWidth="1100" pageHeight="850" background="#ffffff" math="0" shadow="0">
      <root>
        <mxCell id="0" />
        <mxCell id="1" parent="0" />
        <mxCell id="TOffCLLvtVbM3rP3w1rk-34" value="Opt" style="shape=umlFrame;whiteSpace=wrap;html=1;width=60;height=20;" vertex="1" parent="1">
          <mxGeometry x="120" y="400" width="290" height="120" as="geometry" />
        </mxCell>
        <mxCell id="7baba1c4bc27f4b0-8" value="用户" style="shape=umlLifeline;perimeter=lifelinePerimeter;whiteSpace=wrap;html=1;container=1;collapsible=0;recursiveResize=0;outlineConnect=0;rounded=1;shadow=0;comic=0;labelBackgroundColor=none;strokeWidth=1;fontFamily=Verdana;fontSize=12;align=center;" parent="1" vertex="1">
          <mxGeometry x="140" y="80" width="100" height="490" as="geometry" />
        </mxCell>
        <mxCell id="7baba1c4bc27f4b0-9" value="" style="html=1;points=[];perimeter=orthogonalPerimeter;rounded=0;shadow=0;comic=0;labelBackgroundColor=none;strokeWidth=1;fontFamily=Verdana;fontSize=12;align=center;" parent="7baba1c4bc27f4b0-8" vertex="1">
          <mxGeometry x="45" y="100" width="10" height="360" as="geometry" />
        </mxCell>
        <mxCell id="7baba1c4bc27f4b0-11" value="选择社区信息" style="html=1;verticalAlign=bottom;endArrow=block;entryX=0;entryY=0;labelBackgroundColor=none;fontFamily=Verdana;fontSize=12;edgeStyle=elbowEdgeStyle;elbow=vertical;" parent="1" source="7baba1c4bc27f4b0-9" edge="1">
          <mxGeometry relative="1" as="geometry">
            <mxPoint x="260" y="190" as="sourcePoint" />
            <mxPoint x="325" y="180.00000000000057" as="targetPoint" />
          </mxGeometry>
        </mxCell>
        <mxCell id="TOffCLLvtVbM3rP3w1rk-1" value="系统" style="shape=umlLifeline;perimeter=lifelinePerimeter;whiteSpace=wrap;html=1;container=1;collapsible=0;recursiveResize=0;outlineConnect=0;rounded=1;shadow=0;comic=0;labelBackgroundColor=none;strokeWidth=1;fontFamily=Verdana;fontSize=12;align=center;" vertex="1" parent="1">
          <mxGeometry x="280" y="80" width="100" height="490" as="geometry" />
        </mxCell>
        <mxCell id="TOffCLLvtVbM3rP3w1rk-2" value="" style="html=1;points=[];perimeter=orthogonalPerimeter;rounded=0;shadow=0;comic=0;labelBackgroundColor=none;strokeWidth=1;fontFamily=Verdana;fontSize=12;align=center;" vertex="1" parent="TOffCLLvtVbM3rP3w1rk-1">
          <mxGeometry x="45" y="100" width="10" height="360" as="geometry" />
        </mxCell>
        <mxCell id="TOffCLLvtVbM3rP3w1rk-13" value="Alt" style="shape=umlFrame;whiteSpace=wrap;html=1;width=60;height=20;" vertex="1" parent="1">
          <mxGeometry x="120" y="200" width="290" height="180" as="geometry" />
        </mxCell>
        <mxCell id="TOffCLLvtVbM3rP3w1rk-15" value="&lt;div&gt;[删除评论]&lt;/div&gt;" style="text;html=1;strokeColor=none;fillColor=none;align=center;verticalAlign=middle;whiteSpace=wrap;rounded=0;" vertex="1" parent="1">
          <mxGeometry x="100" y="430" width="100" height="20" as="geometry" />
        </mxCell>
        <mxCell id="TOffCLLvtVbM3rP3w1rk-20" value="提交评论内容" style="html=1;verticalAlign=bottom;endArrow=block;" edge="1" parent="1">
          <mxGeometry x="-0.0346" width="80" relative="1" as="geometry">
            <mxPoint x="194" y="240" as="sourcePoint" />
            <mxPoint x="324.3" y="240.20000000000005" as="targetPoint" />
            <Array as="points">
              <mxPoint x="264.8" y="240.20000000000005" />
            </Array>
            <mxPoint as="offset" />
          </mxGeometry>
        </mxCell>
        <mxCell id="TOffCLLvtVbM3rP3w1rk-33" value="请求删除评论" style="html=1;verticalAlign=bottom;endArrow=block;" edge="1" parent="1">
          <mxGeometry x="-0.0346" width="80" relative="1" as="geometry">
            <mxPoint x="194" y="440" as="sourcePoint" />
            <mxPoint x="324.29999999999995" y="440.20000000000005" as="targetPoint" />
            <Array as="points">
              <mxPoint x="264.8" y="440.20000000000005" />
            </Array>
            <mxPoint as="offset" />
          </mxGeometry>
        </mxCell>
        <mxCell id="TOffCLLvtVbM3rP3w1rk-35" value="&lt;div&gt;&lt;font style=&quot;font-size: 11px&quot;&gt;[添加评论]&lt;/font&gt;&lt;/div&gt;" style="text;html=1;strokeColor=none;fillColor=none;align=center;verticalAlign=middle;whiteSpace=wrap;rounded=0;" vertex="1" parent="1">
          <mxGeometry x="100" y="230" width="100" height="20" as="geometry" />
        </mxCell>
        <mxCell id="TOffCLLvtVbM3rP3w1rk-37" value="取消评论" style="html=1;verticalAlign=bottom;endArrow=block;" edge="1" parent="1">
          <mxGeometry x="-0.0346" width="80" relative="1" as="geometry">
            <mxPoint x="194.85" y="340" as="sourcePoint" />
            <mxPoint x="325.15" y="340.20000000000005" as="targetPoint" />
            <Array as="points">
              <mxPoint x="265.65000000000003" y="340.20000000000005" />
            </Array>
            <mxPoint as="offset" />
          </mxGeometry>
        </mxCell>
        <mxCell id="TOffCLLvtVbM3rP3w1rk-39" value="" style="endArrow=none;dashed=1;html=1;entryX=0.996;entryY=0.612;entryDx=0;entryDy=0;entryPerimeter=0;exitX=-0.007;exitY=0.612;exitDx=0;exitDy=0;exitPerimeter=0;" edge="1" parent="1" source="TOffCLLvtVbM3rP3w1rk-13" target="TOffCLLvtVbM3rP3w1rk-13">
          <mxGeometry width="50" height="50" relative="1" as="geometry">
            <mxPoint x="280" y="370" as="sourcePoint" />
            <mxPoint x="330" y="320" as="targetPoint" />
          </mxGeometry>
        </mxCell>
        <mxCell id="TOffCLLvtVbM3rP3w1rk-40" value="[else]" style="text;html=1;strokeColor=none;fillColor=none;align=center;verticalAlign=middle;whiteSpace=wrap;rounded=0;" vertex="1" parent="1">
          <mxGeometry x="90" y="320" width="100" height="20" as="geometry" />
        </mxCell>
        <mxCell id="TOffCLLvtVbM3rP3w1rk-41" value="&lt;font style=&quot;font-size: 11px&quot;&gt;更新社区评论信息&lt;/font&gt;" style="text;html=1;strokeColor=none;fillColor=none;align=center;verticalAlign=middle;whiteSpace=wrap;rounded=0;" vertex="1" parent="1">
          <mxGeometry x="205" y="460" width="100" height="30" as="geometry" />
        </mxCell>
        <mxCell id="TOffCLLvtVbM3rP3w1rk-42" value="" style="endArrow=classic;html=1;entryX=0.933;entryY=0.765;entryDx=0;entryDy=0;entryPerimeter=0;" edge="1" parent="1">
          <mxGeometry width="50" height="50" relative="1" as="geometry">
            <mxPoint x="325" y="490" as="sourcePoint" />
            <mxPoint x="194.32999999999993" y="490.0999999999999" as="targetPoint" />
            <Array as="points">
              <mxPoint x="291" y="490" />
            </Array>
          </mxGeometry>
        </mxCell>
        <mxCell id="TOffCLLvtVbM3rP3w1rk-46" value="&lt;font style=&quot;font-size: 11px&quot;&gt;更新社区评论信息&lt;/font&gt;" style="text;html=1;strokeColor=none;fillColor=none;align=center;verticalAlign=middle;whiteSpace=wrap;rounded=0;" vertex="1" parent="1">
          <mxGeometry x="205" y="250" width="100" height="30" as="geometry" />
        </mxCell>
        <mxCell id="TOffCLLvtVbM3rP3w1rk-47" value="" style="endArrow=classic;html=1;entryX=0.933;entryY=0.765;entryDx=0;entryDy=0;entryPerimeter=0;" edge="1" parent="1">
          <mxGeometry width="50" height="50" relative="1" as="geometry">
            <mxPoint x="320.33" y="280.0000000000001" as="sourcePoint" />
            <mxPoint x="189.65999999999994" y="280.0999999999999" as="targetPoint" />
            <Array as="points">
              <mxPoint x="286.33" y="280" />
            </Array>
          </mxGeometry>
        </mxCell>
      </root>
    </mxGraphModel>
  </diagram>
</mxfile>
